<svg width="84" height="64" viewBox="0 0 84 64" fill="none" xmlns="http://www.w3.org/2000/svg">
<rect x="0.5" y="0.5" width="83" height="63" rx="4.5" fill="white"/>
<rect x="0.5" y="0.5" width="83" height="63" rx="4.5" stroke="#9747FF" stroke-dasharray="10 5"/>
<rect x="20" y="20" width="44" height="24" rx="12" fill="#222222" fill-opacity="0.5"/>
<path d="M31.5179 36.77H34.0379V29.045L31.5329 30.86V29.315L34.0379 27.5H35.4479V36.77H37.5179V38H31.5179V36.77ZM43.755 26.75H45.105L40.245 40.25H38.895L43.755 26.75ZM49.575 38.105C49.075 38.105 48.62 38.03 48.21 37.88C47.81 37.73 47.465 37.525 47.175 37.265C46.895 36.995 46.675 36.685 46.515 36.335C46.365 35.985 46.29 35.605 46.29 35.195H47.685C47.685 35.675 47.85 36.075 48.18 36.395C48.52 36.715 48.985 36.875 49.575 36.875C50.165 36.875 50.625 36.715 50.955 36.395C51.295 36.065 51.465 35.655 51.465 35.165C51.465 34.555 51.285 34.08 50.925 33.74C50.565 33.39 50.015 33.215 49.275 33.215H48.48V31.985H49.275C49.975 31.985 50.49 31.83 50.82 31.52C51.15 31.21 51.315 30.76 51.315 30.17C51.315 29.72 51.16 29.35 50.85 29.06C50.55 28.77 50.125 28.625 49.575 28.625C49.025 28.625 48.595 28.77 48.285 29.06C47.985 29.34 47.835 29.7 47.835 30.14H46.44C46.44 29.76 46.51 29.405 46.65 29.075C46.8 28.735 47.01 28.445 47.28 28.205C47.55 27.955 47.88 27.76 48.27 27.62C48.66 27.47 49.095 27.395 49.575 27.395C50.055 27.395 50.485 27.47 50.865 27.62C51.255 27.76 51.585 27.955 51.855 28.205C52.135 28.455 52.345 28.75 52.485 29.09C52.635 29.42 52.71 29.78 52.71 30.17C52.71 30.77 52.55 31.275 52.23 31.685C51.91 32.095 51.525 32.385 51.075 32.555C51.625 32.715 52.06 33.025 52.38 33.485C52.7 33.945 52.86 34.51 52.86 35.18C52.86 35.59 52.78 35.975 52.62 36.335C52.47 36.685 52.25 36.995 51.96 37.265C51.68 37.525 51.335 37.73 50.925 37.88C50.525 38.03 50.075 38.105 49.575 38.105Z" fill="white"/>
</svg>
