<svg width="143" height="48" viewBox="0 0 143 48" fill="none" xmlns="http://www.w3.org/2000/svg">
<rect width="143" height="48" rx="10" fill="#222222"/>
<path d="M16.288 28.868H17.328C17.584 28.484 17.7867 28.0627 17.936 27.604C18.096 27.1453 18.2187 26.6387 18.304 26.084C18.3893 25.5187 18.4427 24.9053 18.464 24.244C18.496 23.572 18.512 22.8413 18.512 22.052V19.3H25.712V28.868H27.104V32.58H25.328V30.5H18.064V32.58H16.288V28.868ZM23.808 28.868V20.916H20.336V22.052C20.336 23.492 20.2667 24.772 20.128 25.892C19.9893 27.012 19.712 28.004 19.296 28.868H23.808ZM31.7419 30.628C30.6432 30.628 29.7685 30.2973 29.1179 29.636C28.4779 28.964 28.1579 27.9987 28.1579 26.74V25.604C28.1579 25.028 28.2379 24.5107 28.3979 24.052C28.5685 23.5933 28.8085 23.204 29.1179 22.884C29.4379 22.564 29.8165 22.3187 30.2539 22.148C30.7019 21.9773 31.1979 21.892 31.7419 21.892C32.2859 21.892 32.7765 21.9773 33.2139 22.148C33.6619 22.3187 34.0405 22.564 34.3499 22.884C34.6699 23.204 34.9099 23.5933 35.0699 24.052C35.2405 24.5107 35.3259 25.028 35.3259 25.604V26.74C35.3259 27.9987 35.0005 28.964 34.3499 29.636C33.7099 30.2973 32.8405 30.628 31.7419 30.628ZM31.7419 29.076C32.2965 29.076 32.7285 28.8947 33.0379 28.532C33.3579 28.1693 33.5179 27.572 33.5179 26.74V25.604C33.5179 24.868 33.3579 24.324 33.0379 23.972C32.7285 23.62 32.2965 23.444 31.7419 23.444C31.1872 23.444 30.7499 23.62 30.4299 23.972C30.1205 24.324 29.9659 24.868 29.9659 25.604V26.74C29.9659 27.572 30.1205 28.1693 30.4299 28.532C30.7499 28.8947 31.1872 29.076 31.7419 29.076ZM40.3825 30.628C39.8385 30.628 39.3425 30.5427 38.8945 30.372C38.4572 30.1907 38.0785 29.9133 37.7585 29.54C37.4492 29.1667 37.2092 28.6973 37.0385 28.132C36.8785 27.556 36.7985 26.8733 36.7985 26.084V25.012C36.7985 24.1907 36.8358 23.4227 36.9105 22.708C36.9958 21.9827 37.1612 21.348 37.4065 20.804C37.6625 20.26 38.0252 19.8227 38.4945 19.492C38.9638 19.1613 39.5878 18.9747 40.3665 18.932C40.7932 18.9107 41.1612 18.8893 41.4705 18.868C41.7798 18.8467 42.0518 18.82 42.2865 18.788C42.5212 18.756 42.7292 18.7133 42.9105 18.66C43.0918 18.596 43.2732 18.5213 43.4545 18.436V20.052C43.3478 20.116 43.2252 20.1747 43.0865 20.228C42.9478 20.2707 42.7718 20.3133 42.5585 20.356C42.3452 20.388 42.0785 20.42 41.7585 20.452C41.4492 20.4733 41.0705 20.4947 40.6225 20.516C40.2065 20.5373 39.8545 20.6227 39.5665 20.772C39.2892 20.9107 39.0598 21.1027 38.8785 21.348C38.7078 21.5827 38.5798 21.86 38.4945 22.18C38.4092 22.5 38.3505 22.8467 38.3185 23.22C38.5958 22.8787 38.9158 22.6013 39.2785 22.388C39.6518 22.164 40.0732 22.052 40.5425 22.052C41.0545 22.052 41.5185 22.1373 41.9345 22.308C42.3505 22.468 42.7078 22.7027 43.0065 23.012C43.3158 23.3213 43.5505 23.6947 43.7105 24.132C43.8812 24.5693 43.9665 25.06 43.9665 25.604V26.74C43.9665 27.9987 43.6412 28.964 42.9905 29.636C42.3505 30.2973 41.4812 30.628 40.3825 30.628ZM40.3825 29.076C40.9372 29.076 41.3692 28.8947 41.6785 28.532C41.9985 28.1693 42.1585 27.572 42.1585 26.74V25.604C42.1585 24.9427 41.9985 24.4467 41.6785 24.116C41.3692 23.7747 40.9372 23.604 40.3825 23.604C39.8278 23.604 39.3905 23.7747 39.0705 24.116C38.7612 24.4467 38.6065 24.9427 38.6065 25.604V26.74C38.6065 27.572 38.7612 28.1693 39.0705 28.532C39.3905 28.8947 39.8278 29.076 40.3825 29.076ZM47.7591 30.596C46.9805 30.596 46.3725 30.3827 45.9351 29.956C45.4978 29.5187 45.2791 28.9 45.2791 28.1C45.2791 27.268 45.5245 26.6333 46.0151 26.196C46.5058 25.748 47.2578 25.524 48.2711 25.524H50.1431V24.884C50.1431 24.3613 50.0311 23.988 49.8071 23.764C49.5831 23.5293 49.2205 23.412 48.7191 23.412C48.2178 23.412 47.8658 23.5027 47.6631 23.684C47.4605 23.8653 47.3485 24.0893 47.3271 24.356H45.6951C45.7058 23.9827 45.7698 23.6467 45.8871 23.348C46.0151 23.0387 46.2018 22.7773 46.4471 22.564C46.6925 22.3507 47.0018 22.1853 47.3751 22.068C47.7591 21.9507 48.2178 21.892 48.7511 21.892C49.8498 21.892 50.6445 22.1373 51.1351 22.628C51.6365 23.108 51.8871 23.86 51.8871 24.884V30.5H50.3031V29.124C50.2071 29.316 50.0898 29.5027 49.9511 29.684C49.8125 29.8547 49.6418 30.0093 49.4391 30.148C49.2471 30.2867 49.0125 30.3987 48.7351 30.484C48.4578 30.5587 48.1325 30.596 47.7591 30.596ZM48.3031 29.108C48.8791 29.108 49.3271 28.948 49.6471 28.628C49.9778 28.2973 50.1431 27.828 50.1431 27.22V26.836H48.4151C47.8925 26.836 47.5245 26.9373 47.3111 27.14C47.1085 27.332 47.0071 27.62 47.0071 28.004C47.0071 28.3453 47.1138 28.6173 47.3271 28.82C47.5405 29.012 47.8658 29.108 48.3031 29.108ZM53.9314 22.02H57.1954C58.3154 22.02 59.126 22.2387 59.6274 22.676C60.1394 23.1027 60.3954 23.6573 60.3954 24.34C60.3954 24.7347 60.2727 25.092 60.0274 25.412C59.7927 25.732 59.5047 25.9507 59.1634 26.068C59.686 26.2067 60.0754 26.4573 60.3314 26.82C60.5874 27.172 60.7154 27.5987 60.7154 28.1C60.7154 28.836 60.4594 29.4227 59.9474 29.86C59.4354 30.2867 58.6247 30.5 57.5154 30.5H53.9314V22.02ZM57.5154 29.06C58.0274 29.06 58.39 28.9693 58.6034 28.788C58.8167 28.596 58.9234 28.3187 58.9234 27.956C58.9234 27.604 58.8167 27.3373 58.6034 27.156C58.39 26.964 58.0274 26.868 57.5154 26.868H55.6594V29.06H57.5154ZM57.1954 25.492C57.7074 25.492 58.07 25.4067 58.2834 25.236C58.4967 25.0547 58.6034 24.7987 58.6034 24.468C58.6034 24.1587 58.4967 23.9133 58.2834 23.732C58.07 23.5507 57.7074 23.46 57.1954 23.46H55.6594V25.492H57.1954ZM62.4939 22.02H64.1419V28.084L67.7099 22.02H69.4859V30.5H67.8219V24.42L64.2539 30.5H62.4939V22.02ZM73.3309 23.54H70.7229V22.02H77.7309V23.54H75.1229V30.5H73.3309V23.54ZM78.9783 22.02H80.7703V25.076H82.4183C83.5809 25.076 84.4236 25.316 84.9463 25.796C85.4689 26.2653 85.7303 26.932 85.7303 27.796C85.7303 28.6493 85.4636 29.316 84.9303 29.796C84.4076 30.2653 83.5703 30.5 82.4183 30.5H78.9783V22.02ZM82.4183 28.98C82.9943 28.98 83.3889 28.884 83.6023 28.692C83.8156 28.5 83.9223 28.196 83.9223 27.78C83.9223 27.3747 83.8156 27.076 83.6023 26.884C83.3889 26.692 82.9943 26.596 82.4183 26.596H80.7703V28.98H82.4183ZM94.9246 30.628C93.5913 30.628 92.5833 30.292 91.9006 29.62C91.218 28.948 90.8766 27.9773 90.8766 26.708V25.636C90.8766 24.4627 91.218 23.5453 91.9006 22.884C92.5833 22.2227 93.5913 21.892 94.9246 21.892V19.14H96.7166V21.892C98.0393 21.892 99.042 22.2227 99.7246 22.884C100.418 23.5453 100.765 24.4787 100.765 25.684V26.756C100.765 28.004 100.418 28.964 99.7246 29.636C99.042 30.2973 98.0393 30.628 96.7166 30.628V33.7H94.9246V30.628ZM98.9566 25.684C98.9566 24.9053 98.7753 24.34 98.4126 23.988C98.05 23.6253 97.474 23.444 96.6846 23.444V29.076C97.474 29.076 98.05 28.8947 98.4126 28.532C98.7753 28.1693 98.9566 27.5773 98.9566 26.756V25.684ZM92.6846 26.708C92.6846 27.5613 92.8553 28.1693 93.1966 28.532C93.5486 28.8947 94.1353 29.076 94.9566 29.076V23.444C94.146 23.444 93.5646 23.62 93.2126 23.972C92.8606 24.3133 92.6846 24.868 92.6846 25.636V26.708ZM105.82 30.628C104.721 30.628 103.847 30.2973 103.196 29.636C102.556 28.964 102.236 27.9987 102.236 26.74V25.604C102.236 25.028 102.316 24.5107 102.476 24.052C102.647 23.5933 102.887 23.204 103.196 22.884C103.516 22.564 103.895 22.3187 104.332 22.148C104.78 21.9773 105.276 21.892 105.82 21.892C106.364 21.892 106.855 21.9773 107.292 22.148C107.74 22.3187 108.119 22.564 108.428 22.884C108.748 23.204 108.988 23.5933 109.148 24.052C109.319 24.5107 109.404 25.028 109.404 25.604V26.74C109.404 27.9987 109.079 28.964 108.428 29.636C107.788 30.2973 106.919 30.628 105.82 30.628ZM105.82 29.076C106.375 29.076 106.807 28.8947 107.116 28.532C107.436 28.1693 107.596 27.572 107.596 26.74V25.604C107.596 24.868 107.436 24.324 107.116 23.972C106.807 23.62 106.375 23.444 105.82 23.444C105.265 23.444 104.828 23.62 104.508 23.972C104.199 24.324 104.044 24.868 104.044 25.604V26.74C104.044 27.572 104.199 28.1693 104.508 28.532C104.828 28.8947 105.265 29.076 105.82 29.076ZM112.925 23.54H110.317V22.02H117.325V23.54H114.717V30.5H112.925V23.54ZM121.82 30.628C120.721 30.628 119.847 30.2973 119.196 29.636C118.556 28.964 118.236 27.9987 118.236 26.74V25.604C118.236 25.028 118.316 24.5107 118.476 24.052C118.647 23.5933 118.887 23.204 119.196 22.884C119.516 22.564 119.895 22.3187 120.332 22.148C120.78 21.9773 121.276 21.892 121.82 21.892C122.364 21.892 122.855 21.9773 123.292 22.148C123.74 22.3187 124.119 22.564 124.428 22.884C124.748 23.204 124.988 23.5933 125.148 24.052C125.319 24.5107 125.404 25.028 125.404 25.604V26.74C125.404 27.9987 125.079 28.964 124.428 29.636C123.788 30.2973 122.919 30.628 121.82 30.628ZM121.82 29.076C122.375 29.076 122.807 28.8947 123.116 28.532C123.436 28.1693 123.596 27.572 123.596 26.74V25.604C123.596 24.868 123.436 24.324 123.116 23.972C122.807 23.62 122.375 23.444 121.82 23.444C121.265 23.444 120.828 23.62 120.508 23.972C120.199 24.324 120.044 24.868 120.044 25.604V26.74C120.044 27.572 120.199 28.1693 120.508 28.532C120.828 28.8947 121.265 29.076 121.82 29.076Z" fill="white"/>
</svg>
