<svg width="140" height="48" viewBox="0 0 140 48" fill="none" xmlns="http://www.w3.org/2000/svg">
<rect width="140" height="48" rx="10" fill="#B4B4B4"/>
<path d="M27.568 19.3H35.472V30.5H33.968V20.612H29.072V30.5H27.568V19.3ZM41.3669 30.612C40.3002 30.612 39.4522 30.2867 38.8229 29.636C38.1935 28.9747 37.8789 28.0253 37.8789 26.788V25.572C37.8789 24.996 37.9589 24.484 38.1189 24.036C38.2895 23.5773 38.5242 23.1933 38.8229 22.884C39.1322 22.564 39.5002 22.324 39.9269 22.164C40.3535 21.9933 40.8335 21.908 41.3669 21.908C41.9002 21.908 42.3802 21.9933 42.8069 22.164C43.2335 22.324 43.5962 22.564 43.8949 22.884C44.2042 23.1933 44.4389 23.5773 44.5989 24.036C44.7695 24.484 44.8549 24.996 44.8549 25.572V26.788C44.8549 28.0253 44.5402 28.9747 43.9109 29.636C43.2815 30.2867 42.4335 30.612 41.3669 30.612ZM41.3669 29.364C42.0069 29.364 42.5135 29.1613 42.8869 28.756C43.2602 28.34 43.4469 27.684 43.4469 26.788V25.572C43.4469 24.7613 43.2602 24.1587 42.8869 23.764C42.5135 23.3587 42.0069 23.156 41.3669 23.156C40.7269 23.156 40.2202 23.3587 39.8469 23.764C39.4735 24.1587 39.2869 24.7613 39.2869 25.572V26.788C39.2869 27.684 39.4735 28.34 39.8469 28.756C40.2202 29.1613 40.7269 29.364 41.3669 29.364ZM45.9595 29.252H46.7115C46.9568 29.028 47.1542 28.7507 47.3035 28.42C47.4528 28.0787 47.5702 27.6947 47.6555 27.268C47.7408 26.8413 47.7995 26.3827 47.8315 25.892C47.8635 25.3907 47.8795 24.8733 47.8795 24.34V22.02H53.3835V29.252H54.4235V32.5H53.0635V30.5H47.3355V32.5H45.9595V29.252ZM51.9595 29.252V23.252H49.2075V24.388C49.2075 25.4227 49.1488 26.34 49.0315 27.14C48.9142 27.9293 48.6688 28.6333 48.2955 29.252H51.9595ZM59.365 30.612C58.853 30.612 58.3837 30.532 57.957 30.372C57.541 30.2013 57.1837 29.956 56.885 29.636C56.597 29.3053 56.3677 28.9053 56.197 28.436C56.037 27.956 55.957 27.4067 55.957 26.788V25.572C55.957 24.3773 56.2503 23.4707 56.837 22.852C57.4343 22.2227 58.2503 21.908 59.285 21.908C60.3197 21.908 61.1303 22.2227 61.717 22.852C62.3143 23.4707 62.613 24.388 62.613 25.604V26.676H57.365C57.3757 27.6467 57.557 28.3453 57.909 28.772C58.2717 29.188 58.757 29.396 59.365 29.396C59.6317 29.396 59.861 29.364 60.053 29.3C60.2557 29.2253 60.421 29.1293 60.549 29.012C60.6877 28.8947 60.7943 28.7613 60.869 28.612C60.9437 28.4627 60.997 28.308 61.029 28.148H62.453C62.2823 28.98 61.9357 29.5987 61.413 30.004C60.8903 30.4093 60.2077 30.612 59.365 30.612ZM59.301 23.124C58.693 23.124 58.2183 23.3107 57.877 23.684C57.5463 24.0467 57.3757 24.66 57.365 25.524H61.285C61.2637 24.66 61.0823 24.0467 60.741 23.684C60.4103 23.3107 59.9303 23.124 59.301 23.124ZM63.8695 29.156C64.1895 29.1133 64.4562 29.0173 64.6695 28.868C64.8828 28.7187 65.0535 28.4947 65.1815 28.196C65.3095 27.8867 65.4002 27.4973 65.4535 27.028C65.5068 26.5587 65.5335 25.9827 65.5335 25.3V22.02H71.1175V30.5H69.6935V23.252H66.9255V25.3C66.9255 27.124 66.6908 28.468 66.2215 29.332C65.7522 30.1853 64.9682 30.612 63.8695 30.612V29.156ZM73.5125 22.02H74.8725V28.5L78.8245 22.02H80.2325V30.5H78.8725V24.02L74.9205 30.5H73.5125V22.02ZM84.4135 23.252H81.7095V22.02H88.5255V23.252H85.8215V30.5H84.4135V23.252ZM89.9969 22.02H91.4209V25.252H93.3409C94.4609 25.252 95.2715 25.4813 95.7729 25.94C96.2742 26.3987 96.5249 27.0493 96.5249 27.892C96.5249 28.724 96.2742 29.3693 95.7729 29.828C95.2715 30.276 94.4609 30.5 93.3409 30.5H89.9969V22.02ZM93.3409 29.268C94.0129 29.268 94.4769 29.156 94.7329 28.932C94.9889 28.708 95.1169 28.356 95.1169 27.876C95.1169 27.3853 94.9889 27.028 94.7329 26.804C94.4769 26.58 94.0129 26.468 93.3409 26.468H91.4209V29.268H93.3409ZM101.271 30.612C100.759 30.612 100.29 30.532 99.8633 30.372C99.4473 30.2013 99.0899 29.956 98.7913 29.636C98.5033 29.3053 98.2739 28.9053 98.1033 28.436C97.9433 27.956 97.8633 27.4067 97.8633 26.788V25.572C97.8633 24.996 97.9433 24.484 98.1033 24.036C98.2739 23.5773 98.5033 23.1933 98.7913 22.884C99.0899 22.564 99.4473 22.324 99.8633 22.164C100.29 21.9933 100.759 21.908 101.271 21.908C101.698 21.908 102.098 21.9667 102.471 22.084C102.855 22.2013 103.191 22.372 103.479 22.596C103.767 22.82 104.002 23.092 104.183 23.412C104.365 23.7213 104.477 24.068 104.519 24.452H103.095C103.01 24.1 102.823 23.796 102.535 23.54C102.247 23.284 101.826 23.156 101.271 23.156C100.663 23.156 100.178 23.3587 99.8153 23.764C99.4526 24.1587 99.2713 24.7613 99.2713 25.572V26.788C99.2713 27.6947 99.4526 28.3507 99.8153 28.756C100.178 29.1613 100.663 29.364 101.271 29.364C101.826 29.364 102.247 29.2307 102.535 28.964C102.823 28.6973 103.005 28.3987 103.079 28.068H104.519C104.327 28.9107 103.954 29.5453 103.399 29.972C102.855 30.3987 102.146 30.612 101.271 30.612ZM108.02 27.092C107.401 26.9213 106.948 26.628 106.66 26.212C106.372 25.796 106.228 25.268 106.228 24.628C106.228 23.796 106.478 23.156 106.98 22.708C107.481 22.2493 108.292 22.02 109.411 22.02H112.628V30.5H111.204V27.268H109.428L107.476 30.5H105.908L108.02 27.092ZM111.204 26.052V23.252H109.411C108.74 23.252 108.276 23.364 108.02 23.588C107.764 23.812 107.636 24.164 107.636 24.644C107.636 25.1347 107.764 25.492 108.02 25.716C108.276 25.94 108.74 26.052 109.411 26.052H111.204Z" fill="white"/>
</svg>
