<svg width="122" height="30" viewBox="0 0 122 30" fill="none" xmlns="http://www.w3.org/2000/svg">
<path d="M12.6667 9H3.33333C2.59695 9 2 9.59695 2 10.3333V19.6667C2 20.403 2.59695 21 3.33333 21H12.6667C13.403 21 14 20.403 14 19.6667V10.3333C14 9.59695 13.403 9 12.6667 9Z" stroke="#3F8AE0" stroke-width="1.5" stroke-linecap="round" stroke-linejoin="round"/>
<path d="M8 12.334V17.6673" stroke="#3F8AE0" stroke-width="1.5" stroke-linecap="round" stroke-linejoin="round"/>
<path d="M5.33319 15H10.6665" stroke="#3F8AE0" stroke-width="1.5" stroke-linecap="round" stroke-linejoin="round"/>
<path d="M20.405 19.77H21.44C21.69 19.39 21.89 18.96 22.04 18.48C22.19 17.99 22.305 17.455 22.385 16.875C22.475 16.295 22.53 15.67 22.55 15C22.58 14.33 22.595 13.62 22.595 12.87V10.5H29.075V19.77H30.35V22.95H29V21H21.77V22.95H20.405V19.77ZM27.665 19.77V11.73H23.93V12.87C23.93 14.32 23.865 15.63 23.735 16.8C23.615 17.97 23.35 18.96 22.94 19.77H27.665ZM34.608 21.105C33.608 21.105 32.813 20.8 32.223 20.19C31.633 19.57 31.338 18.68 31.338 17.52V16.38C31.338 15.84 31.413 15.36 31.563 14.94C31.723 14.51 31.943 14.15 32.223 13.86C32.513 13.56 32.858 13.335 33.258 13.185C33.658 13.025 34.108 12.945 34.608 12.945C35.108 12.945 35.558 13.025 35.958 13.185C36.358 13.335 36.698 13.56 36.978 13.86C37.268 14.15 37.488 14.51 37.638 14.94C37.798 15.36 37.878 15.84 37.878 16.38V17.52C37.878 18.68 37.583 19.57 36.993 20.19C36.403 20.8 35.608 21.105 34.608 21.105ZM34.608 19.935C35.208 19.935 35.683 19.745 36.033 19.365C36.383 18.975 36.558 18.36 36.558 17.52V16.38C36.558 15.62 36.383 15.055 36.033 14.685C35.683 14.305 35.208 14.115 34.608 14.115C34.008 14.115 33.533 14.305 33.183 14.685C32.833 15.055 32.658 15.62 32.658 16.38V17.52C32.658 18.36 32.833 18.975 33.183 19.365C33.533 19.745 34.008 19.935 34.608 19.935ZM42.5586 21.105C42.0586 21.105 41.6086 21.025 41.2086 20.865C40.8086 20.705 40.4636 20.455 40.1736 20.115C39.8936 19.775 39.6736 19.345 39.5136 18.825C39.3636 18.305 39.2886 17.69 39.2886 16.98V15.9C39.2886 15.2 39.3186 14.52 39.3786 13.86C39.4386 13.2 39.5786 12.615 39.7986 12.105C40.0286 11.585 40.3586 11.165 40.7886 10.845C41.2186 10.515 41.8036 10.33 42.5436 10.29C42.9336 10.27 43.2686 10.25 43.5486 10.23C43.8286 10.21 44.0786 10.185 44.2986 10.155C44.5186 10.125 44.7086 10.085 44.8686 10.035C45.0386 9.975 45.2086 9.905 45.3786 9.825V11.1C45.2986 11.15 45.1986 11.195 45.0786 11.235C44.9686 11.265 44.8136 11.3 44.6136 11.34C44.4236 11.37 44.1736 11.4 43.8636 11.43C43.5636 11.45 43.1886 11.475 42.7386 11.505C42.3086 11.525 41.9536 11.615 41.6736 11.775C41.3936 11.935 41.1686 12.145 40.9986 12.405C40.8286 12.655 40.7036 12.95 40.6236 13.29C40.5436 13.63 40.4936 13.985 40.4736 14.355C40.7036 14.005 41.0036 13.71 41.3736 13.47C41.7536 13.22 42.1986 13.095 42.7086 13.095C43.1686 13.095 43.5886 13.175 43.9686 13.335C44.3586 13.485 44.6886 13.705 44.9586 13.995C45.2386 14.275 45.4536 14.62 45.6036 15.03C45.7536 15.43 45.8286 15.88 45.8286 16.38V17.52C45.8286 18.68 45.5336 19.57 44.9436 20.19C44.3536 20.8 43.5586 21.105 42.5586 21.105ZM42.5586 19.935C43.1586 19.935 43.6336 19.745 43.9836 19.365C44.3336 18.975 44.5086 18.36 44.5086 17.52V16.38C44.5086 15.69 44.3336 15.165 43.9836 14.805C43.6336 14.445 43.1586 14.265 42.5586 14.265C41.9586 14.265 41.4836 14.445 41.1336 14.805C40.7836 15.165 40.6086 15.69 40.6086 16.38V17.52C40.6086 18.36 40.7836 18.975 41.1336 19.365C41.4836 19.745 41.9586 19.935 42.5586 19.935ZM49.4142 21.09C48.6842 21.09 48.1142 20.89 47.7042 20.49C47.2942 20.08 47.0892 19.51 47.0892 18.78C47.0892 18.01 47.3092 17.425 47.7492 17.025C48.1892 16.615 48.8942 16.41 49.8642 16.41H51.7542V15.645C51.7542 15.105 51.6292 14.715 51.3792 14.475C51.1392 14.225 50.7642 14.1 50.2542 14.1C49.9942 14.1 49.7742 14.13 49.5942 14.19C49.4142 14.24 49.2692 14.315 49.1592 14.415C49.0492 14.505 48.9642 14.61 48.9042 14.73C48.8442 14.85 48.8092 14.97 48.7992 15.09H47.5092C47.5392 14.78 47.6092 14.495 47.7192 14.235C47.8292 13.975 47.9942 13.75 48.2142 13.56C48.4342 13.37 48.7092 13.22 49.0392 13.11C49.3792 13 49.7892 12.945 50.2692 12.945C51.2292 12.945 51.9342 13.17 52.3842 13.62C52.8342 14.06 53.0592 14.735 53.0592 15.645V21H51.9042V19.68C51.8042 19.85 51.6892 20.02 51.5592 20.19C51.4292 20.36 51.2642 20.515 51.0642 20.655C50.8742 20.785 50.6442 20.89 50.3742 20.97C50.1042 21.05 49.7842 21.09 49.4142 21.09ZM49.7892 19.95C50.3892 19.95 50.8642 19.775 51.2142 19.425C51.5742 19.065 51.7542 18.58 51.7542 17.97V17.49H49.9242C49.3542 17.49 48.9542 17.595 48.7242 17.805C48.5042 18.005 48.3942 18.325 48.3942 18.765C48.3942 19.115 48.5092 19.4 48.7392 19.62C48.9692 19.84 49.3192 19.95 49.7892 19.95ZM55.0807 13.05H58.0507C59.0307 13.05 59.7507 13.255 60.2107 13.665C60.6807 14.065 60.9157 14.585 60.9157 15.225C60.9157 15.395 60.8857 15.565 60.8257 15.735C60.7757 15.905 60.6957 16.065 60.5857 16.215C60.4857 16.365 60.3607 16.495 60.2107 16.605C60.0707 16.715 59.9107 16.8 59.7307 16.86C60.2207 16.98 60.5907 17.21 60.8407 17.55C61.0907 17.89 61.2157 18.285 61.2157 18.735C61.2157 19.425 60.9807 19.975 60.5107 20.385C60.0507 20.795 59.3307 21 58.3507 21H55.0807V13.05ZM58.3507 19.875C58.9207 19.875 59.3207 19.775 59.5507 19.575C59.7807 19.365 59.8957 19.065 59.8957 18.675C59.8957 18.295 59.7807 18.005 59.5507 17.805C59.3207 17.605 58.9207 17.505 58.3507 17.505H56.3857V19.875H58.3507ZM58.0507 16.395C58.6207 16.395 59.0207 16.3 59.2507 16.11C59.4807 15.91 59.5957 15.635 59.5957 15.285C59.5957 14.935 59.4807 14.665 59.2507 14.475C59.0207 14.275 58.6207 14.175 58.0507 14.175H56.3857V16.395H58.0507ZM62.958 13.05H64.233V19.125L67.938 13.05H69.258V21H67.983V14.925L64.278 21H62.958V13.05ZM73.0277 14.205H70.4927V13.05H76.8827V14.205H74.3477V21H73.0277V14.205ZM78.1121 13.05H79.4471V16.08H81.2471C82.2971 16.08 83.0571 16.295 83.5271 16.725C83.9971 17.155 84.2321 17.765 84.2321 18.555C84.2321 19.335 83.9971 19.94 83.5271 20.37C83.0571 20.79 82.2971 21 81.2471 21H78.1121V13.05ZM81.2471 19.845C81.8771 19.845 82.3121 19.74 82.5521 19.53C82.7921 19.32 82.9121 18.99 82.9121 18.54C82.9121 18.08 82.7921 17.745 82.5521 17.535C82.3121 17.325 81.8771 17.22 81.2471 17.22H79.4471V19.845H81.2471ZM92.8218 21.105C91.5118 21.105 90.5368 20.795 89.8968 20.175C89.2568 19.555 88.9368 18.655 88.9368 17.475V16.41C88.9368 15.32 89.2568 14.47 89.8968 13.86C90.5368 13.25 91.5118 12.945 92.8218 12.945V10.35H94.1418V12.945C95.4318 12.945 96.4018 13.25 97.0518 13.86C97.7018 14.47 98.0268 15.34 98.0268 16.47V17.535C98.0268 18.685 97.7018 19.57 97.0518 20.19C96.4018 20.8 95.4318 21.105 94.1418 21.105V24H92.8218V21.105ZM96.7068 16.47C96.7068 15.68 96.4968 15.09 96.0768 14.7C95.6568 14.31 95.0068 14.115 94.1268 14.115V19.935C95.0068 19.935 95.6568 19.74 96.0768 19.35C96.4968 18.95 96.7068 18.345 96.7068 17.535V16.47ZM90.2568 17.475C90.2568 18.335 90.4518 18.96 90.8418 19.35C91.2418 19.74 91.9068 19.935 92.8368 19.935V14.115C91.9168 14.115 91.2568 14.305 90.8568 14.685C90.4568 15.055 90.2568 15.63 90.2568 16.41V17.475ZM102.706 21.105C101.706 21.105 100.911 20.8 100.321 20.19C99.7313 19.57 99.4363 18.68 99.4363 17.52V16.38C99.4363 15.84 99.5113 15.36 99.6613 14.94C99.8213 14.51 100.041 14.15 100.321 13.86C100.611 13.56 100.956 13.335 101.356 13.185C101.756 13.025 102.206 12.945 102.706 12.945C103.206 12.945 103.656 13.025 104.056 13.185C104.456 13.335 104.796 13.56 105.076 13.86C105.366 14.15 105.586 14.51 105.736 14.94C105.896 15.36 105.976 15.84 105.976 16.38V17.52C105.976 18.68 105.681 19.57 105.091 20.19C104.501 20.8 103.706 21.105 102.706 21.105ZM102.706 19.935C103.306 19.935 103.781 19.745 104.131 19.365C104.481 18.975 104.656 18.36 104.656 17.52V16.38C104.656 15.62 104.481 15.055 104.131 14.685C103.781 14.305 103.306 14.115 102.706 14.115C102.106 14.115 101.631 14.305 101.281 14.685C100.931 15.055 100.756 15.62 100.756 16.38V17.52C100.756 18.36 100.931 18.975 101.281 19.365C101.631 19.745 102.106 19.935 102.706 19.935ZM109.397 14.205H106.862V13.05H113.252V14.205H110.717V21H109.397V14.205ZM117.406 21.105C116.406 21.105 115.611 20.8 115.021 20.19C114.431 19.57 114.136 18.68 114.136 17.52V16.38C114.136 15.84 114.211 15.36 114.361 14.94C114.521 14.51 114.741 14.15 115.021 13.86C115.311 13.56 115.656 13.335 116.056 13.185C116.456 13.025 116.906 12.945 117.406 12.945C117.906 12.945 118.356 13.025 118.756 13.185C119.156 13.335 119.496 13.56 119.776 13.86C120.066 14.15 120.286 14.51 120.436 14.94C120.596 15.36 120.676 15.84 120.676 16.38V17.52C120.676 18.68 120.381 19.57 119.791 20.19C119.201 20.8 118.406 21.105 117.406 21.105ZM117.406 19.935C118.006 19.935 118.481 19.745 118.831 19.365C119.181 18.975 119.356 18.36 119.356 17.52V16.38C119.356 15.62 119.181 15.055 118.831 14.685C118.481 14.305 118.006 14.115 117.406 14.115C116.806 14.115 116.331 14.305 115.981 14.685C115.631 15.055 115.456 15.62 115.456 16.38V17.52C115.456 18.36 115.631 18.975 115.981 19.365C116.331 19.745 116.806 19.935 117.406 19.935Z" fill="#3F8AE0"/>
</svg>
